<svg id="svg" version="1.1" xmlns="http://www.w3.org/2000/svg" xmlns:xlink="http://www.w3.org/1999/xlink" width="400" height="876.595744680851" viewBox="0, 0, 400,876.595744680851"><g id="svgg"><path id="path0" d="M100.245 37.901 C 98.768 40.291,100.415 53.326,103.906 66.868 C 132.411 177.463,144.064 379.514,133.389 578.055 C 130.409 633.461,128.317 638.837,119.466 613.830 C 97.040 550.476,53.257 476.596,38.138 476.596 C 23.282 476.596,24.086 487.905,42.421 536.825 C 59.920 583.514,73.562 633.208,87.097 699.568 C 103.636 780.656,133.511 835.257,157.223 827.731 C 162.116 826.178,175.957 810.207,187.980 792.241 C 217.367 748.326,254.348 699.615,294.024 652.563 C 327.016 613.436,334.732 600.828,346.702 566.486 C 375.289 484.465,289.084 486.863,227.660 569.798 L 202.128 604.270 199.087 520.220 C 190.626 286.367,172.082 159.036,132.659 64.082 C 121.339 36.817,107.716 25.813,100.245 37.901 " stroke="none" fill="#000000" fill-rule="evenodd"></path></g></svg>