<svg id="svg" version="1.1" xmlns="http://www.w3.org/2000/svg" xmlns:xlink="http://www.w3.org/1999/xlink" width="400" height="195.221843003413" viewBox="0, 0, 400,195.221843003413"><g id="svgg"><path id="path0" d="M301.706 20.641 C 301.706 24.741,310.001 37.880,321.068 51.308 C 326.277 57.628,329.877 62.799,329.068 62.799 C 328.260 62.799,320.671 61.301,312.204 59.470 C 275.919 51.625,243.149 51.963,207.313 60.551 L 194.149 63.706 188.539 57.193 C 172.165 38.185,143.058 36.478,105.487 52.324 C 61.259 70.977,22.077 122.962,15.218 172.092 C 12.729 189.914,16.807 195.995,20.146 179.441 C 33.586 112.806,113.197 48.485,162.120 64.734 C 173.902 68.648,173.745 70.042,160.832 76.139 C 112.965 98.744,96.081 143.139,121.679 179.089 C 147.441 215.268,196.662 169.062,200.233 105.348 C 201.242 87.340,199.589 88.979,220.513 85.237 C 248.179 80.289,282.370 82.290,312.925 90.645 L 324.232 93.737 313.993 100.315 C 274.633 125.604,270.928 130.301,278.756 144.987 C 288.226 162.754,291.083 162.888,311.996 146.544 C 338.740 125.645,355.819 115.786,374.611 110.400 L 385.400 107.308 389.093 99.046 C 396.646 82.152,396.258 80.988,380.205 72.354 C 360.991 62.022,335.431 43.305,314.863 24.507 C 306.912 17.240,301.706 15.710,301.706 20.641 M178.400 106.826 C 174.540 152.268,134.936 185.340,132.676 145.008 C 132.005 133.020,138.468 122.506,153.426 111.251 C 161.231 105.378,176.014 97.008,178.699 96.942 C 178.997 96.934,178.862 101.382,178.400 106.826 " stroke="none" fill="#000000" fill-rule="evenodd"></path></g></svg>