<svg id="svg" version="1.1" xmlns="http://www.w3.org/2000/svg" xmlns:xlink="http://www.w3.org/1999/xlink" width="400" height="105.08474576271186" viewBox="0, 0, 400,105.08474576271186"><g id="svgg"><path id="path0" d="M20.250 10.961 C 19.264 11.070,18.013 11.510,17.526 11.920 C 16.966 12.392,16.097 12.733,14.998 12.913 C 14.256 13.035,13.998 13.146,11.408 14.456 C 9.949 15.195,9.767 15.354,9.604 16.039 C 9.427 16.779,9.464 95.719,9.642 96.178 C 10.261 97.784,12.265 97.639,16.936 95.648 C 17.771 95.292,19.009 94.878,19.686 94.729 C 21.965 94.225,21.812 95.212,21.901 80.417 C 21.976 67.993,22.022 67.439,22.967 67.789 C 23.372 67.938,24.956 70.348,25.587 71.774 C 25.818 72.296,26.417 73.340,26.920 74.095 C 27.422 74.850,27.833 75.518,27.833 75.579 C 27.833 75.640,28.161 76.154,28.562 76.720 C 28.963 77.287,29.408 77.980,29.551 78.260 C 29.693 78.541,30.145 79.143,30.554 79.599 C 30.963 80.054,31.577 80.949,31.918 81.588 C 32.259 82.227,32.705 82.938,32.909 83.167 C 33.113 83.396,33.455 83.883,33.669 84.250 C 33.883 84.617,34.375 85.295,34.762 85.757 C 35.150 86.220,35.631 86.895,35.832 87.257 C 36.032 87.620,36.478 88.217,36.822 88.583 C 37.167 88.950,37.626 89.550,37.843 89.917 C 38.409 90.874,39.794 92.284,40.667 92.791 C 41.079 93.031,41.754 93.535,42.167 93.912 C 46.218 97.611,53.705 98.348,58.750 95.545 C 61.471 94.032,62.961 92.882,64.151 91.375 C 64.530 90.894,64.904 90.500,64.980 90.500 C 65.057 90.500,65.388 90.106,65.715 89.625 C 66.043 89.144,66.997 88.000,67.836 87.083 C 70.210 84.488,70.650 83.115,69.529 81.792 C 68.997 81.164,67.586 81.911,65.764 83.783 C 63.999 85.596,59.882 87.833,58.310 87.833 C 54.968 87.833,51.075 84.935,47.564 79.833 C 47.154 79.237,46.452 78.262,46.004 77.667 C 45.556 77.071,44.903 76.149,44.553 75.617 C 44.203 75.086,43.635 74.299,43.290 73.867 C 42.945 73.436,42.337 72.596,41.939 72.000 C 41.540 71.404,41.050 70.771,40.849 70.592 C 40.649 70.414,40.254 69.836,39.973 69.308 C 39.692 68.780,39.214 68.060,38.912 67.707 C 38.610 67.354,38.123 66.657,37.829 66.158 C 37.535 65.658,37.000 64.837,36.641 64.333 C 35.529 62.775,34.202 60.791,33.661 59.876 C 33.377 59.396,33.011 58.909,32.848 58.793 C 31.685 57.967,31.747 55.814,32.975 54.419 C 34.379 52.824,35.176 51.857,35.923 50.842 C 36.329 50.291,36.962 49.520,37.331 49.129 C 37.699 48.738,38.000 48.322,38.000 48.204 C 38.000 48.086,38.371 47.609,38.824 47.144 C 39.277 46.679,39.817 46.051,40.024 45.749 C 40.232 45.446,40.612 45.074,40.870 44.921 C 41.128 44.769,41.653 44.218,42.035 43.697 C 42.418 43.176,42.820 42.675,42.930 42.583 C 43.039 42.492,43.357 42.093,43.637 41.698 C 43.917 41.302,44.469 40.620,44.865 40.182 C 45.260 39.743,46.146 38.680,46.833 37.819 C 47.521 36.959,48.432 35.916,48.858 35.502 C 49.283 35.088,49.827 34.433,50.065 34.046 C 50.304 33.659,50.678 33.225,50.896 33.081 C 51.115 32.938,51.657 32.355,52.101 31.785 C 52.544 31.216,52.993 30.675,53.097 30.583 C 53.202 30.492,53.524 30.064,53.813 29.632 C 54.102 29.201,54.469 28.751,54.628 28.632 C 54.787 28.514,55.226 28.004,55.604 27.500 C 55.981 26.996,56.487 26.374,56.727 26.118 C 56.967 25.862,57.463 25.212,57.829 24.673 C 58.195 24.134,58.722 23.531,59.001 23.333 C 59.280 23.134,59.648 22.696,59.821 22.358 C 59.993 22.021,60.789 21.071,61.589 20.247 C 62.390 19.424,63.278 18.441,63.564 18.062 C 63.850 17.684,64.356 17.047,64.690 16.646 C 65.023 16.245,65.433 15.477,65.601 14.939 L 65.907 13.960 65.412 13.564 C 65.138 13.345,64.693 13.168,64.417 13.168 C 64.142 13.169,63.150 13.080,62.213 12.972 L 60.510 12.775 59.185 14.137 C 58.457 14.887,57.707 15.749,57.519 16.053 C 57.331 16.357,57.015 16.750,56.817 16.928 C 56.458 17.249,55.288 18.748,53.796 20.800 C 53.363 21.395,52.789 22.124,52.520 22.419 C 52.252 22.714,51.846 23.247,51.618 23.603 C 51.391 23.959,50.968 24.473,50.680 24.745 C 50.392 25.017,49.972 25.553,49.748 25.936 C 49.523 26.318,49.132 26.809,48.878 27.027 C 48.326 27.500,46.672 29.516,45.768 30.817 C 45.412 31.330,44.812 32.136,44.435 32.608 C 44.058 33.079,43.300 34.052,42.750 34.770 C 42.200 35.488,41.446 36.380,41.075 36.753 C 40.703 37.126,40.053 37.915,39.630 38.507 C 39.206 39.099,38.619 39.808,38.324 40.083 C 38.030 40.358,37.591 40.889,37.350 41.263 C 36.955 41.875,36.561 42.375,35.147 44.063 C 34.907 44.349,34.445 45.001,34.120 45.511 C 33.795 46.021,33.260 46.644,32.930 46.895 C 32.600 47.147,32.181 47.646,31.998 48.005 C 31.815 48.363,31.341 48.978,30.945 49.370 C 30.550 49.762,30.110 50.271,29.968 50.500 C 29.620 51.064,27.722 53.504,26.597 54.833 C 24.933 56.801,24.423 57.437,23.878 58.223 C 23.445 58.848,23.245 59.000,22.853 59.000 C 21.901 59.000,21.940 59.941,21.884 35.333 C 21.855 22.912,21.794 12.519,21.747 12.238 C 21.629 11.523,20.887 10.890,20.250 10.961 M139.250 14.018 C 137.803 14.177,133.566 15.430,132.457 16.026 C 131.915 16.317,130.759 17.371,130.429 17.875 C 129.978 18.562,130.030 95.560,130.481 96.580 C 131.112 98.007,132.102 98.133,135.168 97.179 C 136.130 96.880,137.285 96.524,137.736 96.389 C 139.955 95.720,141.348 94.234,141.322 92.563 C 141.311 91.933,141.392 90.892,141.501 90.250 C 141.610 89.608,141.752 88.204,141.816 87.129 C 141.966 84.641,142.219 84.258,143.643 84.374 C 144.606 84.453,145.063 84.856,148.389 88.562 C 151.904 92.477,152.301 92.872,154.225 94.361 C 158.776 97.884,163.390 98.099,167.993 95.005 C 168.832 94.441,169.559 93.873,169.609 93.743 C 169.659 93.613,169.960 93.346,170.278 93.150 C 171.365 92.478,172.177 90.654,171.814 89.699 C 171.383 88.564,170.208 88.522,168.592 89.584 C 167.103 90.561,166.469 90.726,164.980 90.520 C 163.884 90.368,162.000 89.499,162.000 89.145 C 162.000 89.080,161.753 88.875,161.452 88.688 C 160.925 88.363,159.896 87.378,159.163 86.500 C 158.972 86.271,158.274 85.521,157.612 84.833 C 153.716 80.789,153.007 79.738,153.342 78.500 C 153.574 77.643,153.621 77.595,155.526 76.286 C 159.188 73.769,162.023 71.266,163.118 69.583 C 163.356 69.217,163.941 68.467,164.417 67.917 C 165.529 66.631,167.129 64.207,167.345 63.481 C 167.730 62.183,168.333 59.121,168.333 58.461 C 168.332 56.884,167.253 53.689,166.563 53.217 C 166.321 53.052,165.739 52.570,165.270 52.147 C 163.118 50.204,157.218 50.066,155.500 51.917 C 155.271 52.164,154.740 52.541,154.320 52.755 C 153.901 52.968,153.359 53.404,153.116 53.722 C 152.873 54.041,152.417 54.461,152.103 54.655 C 151.475 55.043,149.872 56.930,149.427 57.805 C 149.272 58.110,148.877 58.710,148.550 59.138 C 147.874 60.023,147.416 60.947,147.173 61.917 C 147.081 62.283,146.813 62.806,146.577 63.078 C 145.996 63.749,145.607 64.411,145.154 65.500 C 144.944 66.004,144.563 66.688,144.307 67.019 C 144.051 67.350,143.644 68.250,143.402 69.019 C 142.802 70.931,142.040 71.570,141.687 70.458 C 141.308 69.270,141.272 66.794,141.261 41.500 C 141.248 10.787,141.467 13.773,139.250 14.018 M316.583 28.727 C 313.538 29.766,311.760 30.661,311.278 31.397 C 311.053 31.740,311.012 32.978,310.968 40.688 C 310.908 51.104,310.974 50.750,309.042 51.076 C 307.717 51.300,305.500 54.207,305.500 55.720 C 305.500 56.567,307.104 57.333,308.878 57.333 C 310.951 57.333,310.904 56.934,310.936 74.583 C 310.966 90.739,310.943 90.385,312.103 92.797 C 313.832 96.389,316.629 97.578,321.551 96.814 C 326.857 95.991,333.037 88.613,328.208 88.867 C 327.311 88.914,327.236 88.952,326.756 89.616 C 326.041 90.603,324.408 90.892,323.168 90.250 C 322.149 89.724,322.181 90.238,322.150 73.662 L 322.123 59.574 322.547 58.746 C 323.157 57.555,324.796 56.973,326.745 57.254 C 329.777 57.692,332.102 55.773,331.966 52.944 C 331.888 51.323,331.453 51.151,327.206 51.067 C 323.718 50.998,323.103 50.892,322.503 50.253 L 322.124 49.850 322.151 40.883 C 322.193 26.575,322.287 26.780,316.583 28.727 M199.750 39.841 C 199.200 39.927,198.412 40.113,198.000 40.254 C 197.588 40.395,196.545 40.625,195.684 40.764 C 194.043 41.029,193.867 41.096,192.250 42.075 C 191.700 42.408,190.849 42.797,190.359 42.940 C 189.869 43.083,188.784 43.642,187.947 44.183 C 187.111 44.724,186.340 45.167,186.234 45.167 C 186.128 45.167,185.938 45.292,185.812 45.444 C 185.686 45.597,185.171 45.982,184.667 46.301 C 183.052 47.321,181.308 49.235,181.084 50.231 C 180.932 50.907,180.818 51.094,180.528 51.137 C 180.061 51.205,179.600 52.033,179.875 52.309 C 180.342 52.775,181.000 52.386,181.000 51.644 C 181.000 51.225,181.065 51.178,181.792 51.083 C 183.321 50.881,183.502 50.808,183.958 50.211 C 184.740 49.185,186.793 48.599,187.332 49.248 C 187.614 49.589,186.811 50.288,185.723 50.649 C 185.090 50.859,184.859 51.039,184.650 51.486 C 184.447 51.918,184.102 52.199,183.218 52.652 C 182.057 53.248,180.944 54.314,180.415 55.336 C 180.279 55.599,179.940 55.948,179.661 56.113 C 179.133 56.425,177.826 58.672,176.921 60.823 C 176.673 61.413,176.285 62.138,176.059 62.434 C 175.833 62.730,175.516 63.523,175.355 64.195 C 175.194 64.867,174.755 65.997,174.379 66.707 C 173.414 68.533,173.267 69.585,173.258 74.750 C 173.249 79.596,173.298 79.908,174.349 81.649 C 174.706 82.241,175.150 83.144,175.335 83.655 C 175.521 84.165,175.824 84.846,176.008 85.167 C 176.193 85.487,176.636 86.318,176.992 87.012 C 178.020 89.014,180.249 91.838,181.709 92.989 C 182.402 93.536,183.018 94.061,183.077 94.156 C 183.544 94.912,189.284 98.120,191.167 98.677 C 191.854 98.881,192.741 99.262,193.136 99.526 C 194.106 100.170,195.489 100.608,197.000 100.750 C 197.688 100.814,198.625 100.937,199.083 101.022 C 203.430 101.831,205.985 101.892,209.583 101.276 C 210.958 101.041,212.571 100.801,213.167 100.744 C 214.665 100.599,215.906 100.232,217.083 99.584 C 217.633 99.282,218.533 98.909,219.083 98.756 C 219.633 98.604,220.721 98.116,221.500 97.672 C 222.279 97.229,223.211 96.744,223.572 96.596 C 224.263 96.310,227.908 93.950,228.076 93.679 C 228.130 93.592,228.603 93.281,229.129 92.988 C 230.288 92.342,232.403 90.403,234.000 88.523 C 234.412 88.038,235.275 87.064,235.917 86.359 C 236.558 85.654,237.383 84.706,237.750 84.251 C 238.878 82.852,239.612 82.167,239.982 82.167 C 240.358 82.167,242.246 83.375,242.458 83.751 C 242.527 83.873,242.924 84.335,243.340 84.778 C 243.757 85.221,244.515 86.108,245.026 86.750 C 245.537 87.392,246.708 88.677,247.627 89.607 C 248.547 90.536,249.344 91.436,249.398 91.607 C 249.453 91.777,249.857 92.118,250.297 92.365 C 250.737 92.612,251.437 93.112,251.852 93.478 C 252.266 93.843,253.088 94.422,253.678 94.764 C 254.268 95.106,255.012 95.590,255.333 95.838 C 255.654 96.087,256.442 96.559,257.083 96.886 C 257.725 97.214,258.587 97.710,259.000 97.990 C 259.412 98.270,260.237 98.659,260.833 98.855 C 261.429 99.051,262.341 99.470,262.859 99.786 C 263.667 100.279,264.144 100.418,266.193 100.756 C 267.507 100.973,269.296 101.285,270.167 101.450 C 272.323 101.859,276.922 101.867,278.583 101.466 C 279.225 101.312,280.537 101.061,281.500 100.909 C 283.494 100.596,283.956 100.432,285.137 99.619 C 285.602 99.299,286.381 98.942,286.867 98.826 C 288.094 98.532,288.644 98.281,289.417 97.665 C 289.783 97.372,290.515 96.914,291.043 96.647 C 292.059 96.132,294.745 93.859,294.912 93.372 C 294.967 93.213,295.340 92.842,295.741 92.547 C 296.226 92.191,296.509 91.839,296.584 91.498 C 296.711 90.920,297.258 90.333,297.671 90.333 C 298.219 90.333,298.473 89.284,298.151 88.359 C 297.862 87.532,296.634 87.947,296.111 89.049 C 295.755 89.798,294.702 90.741,293.938 90.993 C 293.526 91.129,293.301 91.320,293.233 91.593 C 293.118 92.051,292.344 92.576,291.529 92.748 C 291.225 92.812,290.732 93.079,290.435 93.340 C 288.822 94.756,285.167 95.235,285.167 94.030 C 285.167 93.563,285.199 93.546,286.625 93.258 C 289.020 92.775,289.071 92.756,289.292 92.301 C 289.616 91.631,290.603 91.135,292.339 90.768 C 292.635 90.705,292.872 90.450,293.131 89.917 C 293.537 89.082,293.507 89.100,294.873 88.832 C 295.749 88.660,295.841 88.599,295.966 88.114 C 296.070 87.710,296.207 87.571,296.539 87.532 C 297.093 87.466,297.363 87.140,297.486 86.384 C 297.586 85.771,297.656 85.704,298.675 85.255 C 299.115 85.061,299.386 84.759,299.729 84.080 C 299.984 83.578,300.253 83.167,300.327 83.167 C 300.402 83.167,300.668 82.683,300.919 82.093 C 301.170 81.502,301.561 80.846,301.787 80.634 C 302.502 79.966,303.001 78.553,304.038 74.250 C 304.594 71.940,304.188 65.894,303.266 62.750 C 303.050 62.017,302.779 61.057,302.664 60.618 C 302.548 60.179,302.229 59.542,301.955 59.202 C 301.682 58.862,301.239 58.101,300.972 57.512 C 300.705 56.922,300.188 56.115,299.823 55.719 C 299.457 55.323,298.952 54.680,298.700 54.291 C 298.011 53.228,294.356 49.533,293.500 49.033 C 293.087 48.793,292.295 48.287,291.739 47.910 C 291.184 47.532,290.171 46.991,289.489 46.707 C 288.808 46.423,287.889 45.989,287.447 45.742 C 287.006 45.495,285.693 45.004,284.531 44.652 C 283.368 44.300,282.003 43.864,281.498 43.684 C 278.183 42.501,266.007 42.618,263.365 43.859 C 262.786 44.131,261.736 44.463,261.031 44.596 C 259.325 44.920,258.241 45.279,257.333 45.823 C 256.921 46.070,255.946 46.492,255.168 46.761 C 254.389 47.030,253.423 47.501,253.020 47.808 C 252.618 48.114,251.765 48.639,251.124 48.973 C 250.484 49.308,249.762 49.777,249.521 50.015 C 249.280 50.253,248.740 50.680,248.320 50.962 C 247.901 51.245,247.359 51.737,247.116 52.056 C 246.873 52.374,246.423 52.790,246.117 52.979 C 245.811 53.168,245.359 53.607,245.112 53.953 C 244.866 54.300,243.975 55.197,243.133 55.946 C 242.291 56.696,241.335 57.706,241.009 58.190 C 239.476 60.468,238.284 60.324,236.009 57.583 C 235.248 56.667,234.353 55.653,234.021 55.330 C 233.689 55.007,233.108 54.407,232.731 53.996 C 232.354 53.586,231.866 53.089,231.647 52.893 C 231.429 52.697,230.540 51.815,229.671 50.935 C 228.803 50.054,228.038 49.333,227.972 49.333 C 227.906 49.333,227.389 48.902,226.822 48.375 C 225.516 47.161,223.601 45.931,221.207 44.767 C 220.174 44.265,219.138 43.704,218.904 43.520 C 218.669 43.335,217.884 42.992,217.158 42.757 C 216.432 42.522,215.508 42.097,215.105 41.813 C 214.493 41.382,214.001 41.230,212.144 40.900 C 210.919 40.683,209.054 40.347,208.000 40.155 C 205.826 39.758,201.367 39.589,199.750 39.841 M201.098 45.668 C 201.823 45.852,202.529 46.051,202.667 46.110 C 203.184 46.333,201.504 46.519,197.904 46.637 C 194.067 46.762,193.333 46.915,193.333 47.591 C 193.333 47.934,192.708 48.143,190.839 48.425 C 188.754 48.740,188.445 48.730,187.977 48.333 C 187.418 47.860,187.786 47.620,189.626 47.260 C 190.427 47.103,191.458 46.769,191.917 46.517 C 193.934 45.411,198.441 44.994,201.098 45.668 M209.333 47.851 C 209.486 47.936,209.111 47.992,208.375 47.995 C 207.710 47.998,207.167 47.930,207.167 47.845 C 207.167 47.525,208.755 47.529,209.333 47.851 M95.333 51.840 C 94.279 52.209,92.817 52.664,92.083 52.851 C 88.980 53.644,82.542 58.551,81.392 61.000 C 81.242 61.321,80.895 61.840,80.623 62.153 C 80.350 62.466,79.922 63.179,79.671 63.736 C 79.420 64.294,78.948 65.068,78.621 65.458 C 78.280 65.865,77.873 66.643,77.662 67.291 C 77.461 67.910,77.039 68.894,76.725 69.477 C 75.538 71.676,74.956 76.782,75.319 81.802 C 75.602 85.712,75.692 86.134,76.650 88.083 C 77.100 89.000,77.594 90.087,77.747 90.500 C 78.353 92.136,81.060 94.547,84.183 96.233 C 86.208 97.326,92.169 97.694,94.592 96.876 C 96.904 96.095,100.761 92.952,101.713 91.073 C 102.677 89.170,103.532 89.563,105.011 92.592 L 106.040 94.699 107.290 95.515 C 108.708 96.441,109.123 96.578,111.331 96.844 C 115.302 97.322,117.646 96.403,121.285 92.942 C 122.650 91.644,123.170 90.274,122.661 89.322 C 122.319 88.683,120.054 89.019,119.773 89.751 C 119.424 90.661,116.836 90.963,115.976 90.194 C 115.176 89.479,115.140 88.949,115.092 77.248 C 115.044 65.384,115.074 65.701,113.961 65.362 C 112.452 64.903,111.832 64.987,109.640 65.943 C 108.937 66.249,108.241 66.500,108.093 66.500 C 107.606 66.500,105.821 67.170,105.184 67.592 C 104.053 68.340,103.947 68.763,103.812 73.083 C 103.508 82.792,101.753 87.487,97.425 90.161 C 96.347 90.828,92.882 90.878,91.655 90.245 C 89.050 88.901,86.489 85.076,85.748 81.421 C 84.697 76.242,85.100 70.497,86.754 67.083 C 87.243 66.075,87.728 64.923,87.833 64.523 C 87.937 64.122,88.224 63.611,88.470 63.386 C 88.716 63.161,89.055 62.851,89.224 62.697 C 89.393 62.543,89.667 62.152,89.833 61.829 C 90.252 61.014,92.200 59.105,93.048 58.677 C 93.434 58.482,93.975 58.179,94.250 58.004 C 96.613 56.502,101.057 57.460,103.365 59.970 C 103.760 60.399,104.271 60.873,104.500 61.021 C 104.729 61.170,105.212 61.572,105.573 61.914 C 106.429 62.726,107.166 62.674,108.797 61.689 C 109.460 61.288,110.334 60.922,110.897 60.809 C 112.637 60.459,114.247 58.679,113.829 57.565 C 113.589 56.927,112.151 55.464,110.960 54.647 C 110.434 54.286,109.872 53.853,109.710 53.684 C 109.252 53.207,108.841 53.046,107.375 52.768 C 106.625 52.626,105.559 52.319,105.006 52.086 C 102.099 50.862,98.399 50.768,95.333 51.840 M358.750 51.505 C 358.292 51.692,356.917 52.139,355.695 52.498 C 354.474 52.857,353.236 53.302,352.945 53.486 C 352.655 53.670,352.042 54.020,351.583 54.263 C 349.943 55.134,347.018 57.165,346.583 57.735 C 346.340 58.055,345.897 58.460,345.599 58.635 C 345.299 58.812,344.830 59.356,344.548 59.852 C 344.267 60.346,343.845 60.915,343.609 61.118 C 343.374 61.320,343.018 61.807,342.819 62.201 C 342.620 62.595,342.130 63.458,341.731 64.119 C 340.117 66.789,338.853 70.260,338.498 73.000 C 338.397 73.779,338.124 75.504,337.892 76.833 C 337.465 79.281,337.449 80.835,337.838 82.083 C 337.924 82.358,338.181 83.676,338.409 85.011 C 338.839 87.524,339.146 88.512,339.672 89.083 C 339.841 89.267,340.216 89.972,340.505 90.651 C 341.356 92.652,345.285 96.115,347.328 96.665 C 351.754 97.857,356.866 97.517,359.038 95.887 C 359.521 95.524,360.329 94.983,360.833 94.684 C 361.417 94.339,361.960 93.836,362.327 93.299 C 362.645 92.836,363.155 92.185,363.462 91.853 C 363.768 91.522,364.268 90.718,364.572 90.068 C 365.458 88.171,366.182 88.328,366.740 90.540 C 367.016 91.632,367.391 92.363,368.601 94.167 C 369.002 94.764,370.197 95.857,371.076 96.429 C 371.964 97.008,377.771 96.906,379.000 96.291 C 380.603 95.488,382.004 94.570,382.778 93.815 C 383.191 93.413,383.766 92.853,384.056 92.571 C 384.850 91.799,385.314 90.052,384.909 89.365 C 384.195 88.156,382.983 88.215,382.227 89.494 C 381.601 90.553,379.416 90.862,378.557 90.012 C 377.478 88.943,377.418 88.251,377.409 76.833 C 377.401 65.722,377.421 65.941,376.368 65.191 C 375.688 64.707,375.567 64.722,373.083 65.595 C 371.892 66.014,370.213 66.583,369.352 66.860 C 366.709 67.711,366.500 68.180,366.500 73.268 C 366.500 77.158,366.312 78.845,365.721 80.250 C 365.490 80.800,365.016 82.176,364.667 83.308 C 364.254 84.648,363.813 85.696,363.405 86.308 C 363.060 86.826,362.586 87.540,362.352 87.895 C 362.118 88.250,361.737 88.659,361.505 88.804 C 361.273 88.949,360.806 89.311,360.468 89.608 C 358.815 91.059,353.617 90.952,352.684 89.447 C 352.503 89.155,352.082 88.654,351.747 88.333 C 351.161 87.772,350.140 86.223,349.392 84.764 C 349.195 84.379,348.870 83.244,348.669 82.241 C 348.468 81.238,348.154 79.892,347.970 79.250 C 347.391 77.218,347.359 74.308,347.894 72.356 C 348.137 71.473,348.515 69.921,348.734 68.907 C 348.954 67.893,349.289 66.768,349.478 66.407 C 349.667 66.046,350.078 65.225,350.391 64.583 C 351.411 62.492,353.896 59.528,355.315 58.711 C 355.738 58.468,356.340 58.077,356.654 57.843 C 358.307 56.610,365.429 58.277,366.398 60.124 C 366.913 61.105,368.752 62.500,369.530 62.500 C 369.754 62.500,370.425 62.206,371.020 61.847 C 371.615 61.489,372.548 61.068,373.092 60.912 C 374.957 60.380,376.674 58.730,376.425 57.710 C 376.271 57.080,374.654 55.462,373.292 54.573 C 372.673 54.170,372.167 53.772,372.167 53.688 C 372.167 53.456,371.091 53.080,369.250 52.670 C 368.289 52.456,367.195 52.083,366.667 51.789 C 365.417 51.095,360.211 50.907,358.750 51.505 M276.220 54.826 C 277.395 55.131,278.595 55.541,278.886 55.737 C 279.178 55.932,279.792 56.309,280.250 56.573 C 281.427 57.251,283.308 58.783,284.049 59.667 C 286.473 62.560,286.728 62.954,287.233 64.588 C 287.459 65.319,287.837 66.457,288.073 67.117 C 288.878 69.367,288.806 72.921,287.916 74.935 C 287.700 75.423,287.365 76.401,287.171 77.108 C 286.961 77.873,286.594 78.701,286.263 79.155 C 285.957 79.574,285.481 80.367,285.205 80.917 C 284.280 82.758,282.718 83.971,280.333 84.701 C 278.541 85.249,271.576 85.254,268.250 84.708 C 267.058 84.513,265.573 84.309,264.949 84.254 C 264.326 84.200,263.238 83.975,262.533 83.754 C 260.162 83.011,257.947 82.737,256.926 83.058 C 255.812 83.410,255.747 83.406,254.746 82.940 C 253.638 82.424,249.990 78.298,249.122 76.580 C 248.890 76.120,248.393 75.371,248.017 74.917 C 247.387 74.154,246.936 73.065,246.808 71.996 C 246.755 71.549,247.386 70.340,248.218 69.298 C 248.490 68.957,248.946 68.307,249.231 67.853 C 250.288 66.171,255.813 60.099,257.322 58.960 C 257.832 58.575,258.530 58.015,258.873 57.716 C 262.443 54.595,270.291 53.287,276.220 54.826 M211.917 56.314 C 215.723 57.021,216.669 57.341,217.424 58.175 C 217.600 58.369,217.980 58.627,218.270 58.748 C 218.560 58.869,219.086 59.228,219.440 59.545 C 219.794 59.863,220.533 60.408,221.083 60.756 C 221.633 61.105,222.527 61.790,223.070 62.278 C 223.613 62.767,224.141 63.167,224.245 63.167 C 224.348 63.167,224.729 63.476,225.091 63.854 C 225.454 64.232,226.154 64.723,226.648 64.945 C 227.142 65.168,228.014 65.684,228.586 66.092 C 229.158 66.500,229.706 66.833,229.804 66.833 C 230.077 66.833,230.775 67.826,231.239 68.875 L 231.655 69.816 231.346 70.714 C 230.971 71.803,230.629 72.473,230.222 72.917 C 229.754 73.428,229.000 74.463,229.000 74.596 C 229.000 74.661,228.655 75.173,228.234 75.732 C 227.813 76.292,227.157 77.217,226.776 77.787 C 225.680 79.429,223.662 82.000,223.025 82.566 C 222.704 82.850,222.061 83.453,221.596 83.906 C 220.311 85.155,218.964 86.258,218.325 86.584 C 218.009 86.745,217.401 87.130,216.975 87.440 C 216.032 88.126,215.020 88.587,213.914 88.833 C 213.457 88.934,212.408 89.332,211.583 89.717 L 210.083 90.417 207.083 90.417 L 204.083 90.417 202.583 89.717 C 201.758 89.332,200.719 88.936,200.275 88.837 C 197.875 88.304,192.399 83.932,191.257 81.638 C 191.059 81.241,190.654 80.535,190.358 80.069 C 188.517 77.180,188.565 70.187,190.450 66.433 C 190.867 65.603,191.309 64.639,191.432 64.290 C 191.649 63.674,192.997 61.976,193.831 61.268 C 194.059 61.075,194.703 60.448,195.263 59.875 C 195.822 59.302,196.399 58.833,196.544 58.833 C 196.689 58.833,197.166 58.560,197.603 58.226 C 198.837 57.284,200.575 56.695,204.333 55.942 C 205.309 55.746,210.137 55.983,211.917 56.314 M155.636 60.831 C 157.162 61.588,157.488 63.372,156.324 64.587 C 156.058 64.865,155.633 65.516,155.379 66.036 C 155.125 66.555,154.540 67.378,154.080 67.865 C 153.620 68.352,152.733 69.440,152.110 70.284 C 151.487 71.128,150.701 72.056,150.364 72.345 C 150.026 72.635,149.525 73.160,149.250 73.513 C 148.629 74.310,146.522 76.000,146.150 76.000 C 144.944 76.000,145.262 72.620,146.631 70.894 C 146.912 70.540,147.270 69.800,147.425 69.250 C 147.750 68.105,148.235 67.067,148.672 66.583 C 148.838 66.400,149.105 65.912,149.267 65.500 C 149.597 64.655,149.951 64.089,150.917 62.865 C 151.283 62.400,151.719 61.827,151.884 61.592 C 152.711 60.414,154.190 60.114,155.636 60.831 M260.833 87.930 C 260.906 88.330,261.043 88.422,261.910 88.653 C 262.700 88.863,262.980 89.030,263.275 89.468 C 263.763 90.192,264.158 90.482,265.708 91.251 C 267.300 92.042,267.359 92.333,265.926 92.333 C 264.323 92.333,263.825 92.153,263.554 91.474 C 263.369 91.013,263.171 90.803,262.856 90.735 C 261.552 90.452,261.163 90.131,261.014 89.217 C 260.926 88.675,260.844 88.597,260.146 88.394 C 259.086 88.084,258.805 87.728,259.303 87.325 C 259.825 86.902,260.710 87.252,260.833 87.930 M270.069 93.330 C 271.229 93.529,271.260 93.548,270.895 93.851 C 270.236 94.397,267.257 93.879,267.773 93.308 C 268.069 92.981,268.030 92.981,270.069 93.330 " stroke="none" fill="#20201f" fill-rule="evenodd"></path><path id="path1" d="M0.000 52.500 L 0.000 105.000 200.000 105.000 L 400.000 105.000 400.000 52.500 L 400.000 0.000 200.000 0.000 L 0.000 0.000 0.000 52.500 M21.747 12.238 C 21.794 12.519,21.855 22.912,21.884 35.333 C 21.940 59.941,21.901 59.000,22.853 59.000 C 23.245 59.000,23.445 58.848,23.878 58.223 C 24.423 57.437,24.933 56.801,26.597 54.833 C 27.722 53.504,29.620 51.064,29.968 50.500 C 30.110 50.271,30.550 49.762,30.945 49.370 C 31.341 48.978,31.815 48.363,31.998 48.005 C 32.181 47.646,32.600 47.147,32.930 46.895 C 33.260 46.644,33.795 46.021,34.120 45.511 C 34.445 45.001,34.907 44.349,35.147 44.063 C 36.561 42.375,36.955 41.875,37.350 41.263 C 37.591 40.889,38.030 40.358,38.324 40.083 C 38.619 39.808,39.206 39.099,39.630 38.507 C 40.053 37.915,40.703 37.126,41.075 36.753 C 41.446 36.380,42.200 35.488,42.750 34.770 C 43.300 34.052,44.058 33.079,44.435 32.608 C 44.812 32.136,45.412 31.330,45.768 30.817 C 46.672 29.516,48.326 27.500,48.878 27.027 C 49.132 26.809,49.523 26.318,49.748 25.936 C 49.972 25.553,50.392 25.017,50.680 24.745 C 50.968 24.473,51.391 23.959,51.618 23.603 C 51.846 23.247,52.252 22.714,52.520 22.419 C 52.789 22.124,53.363 21.395,53.796 20.800 C 55.288 18.748,56.458 17.249,56.817 16.928 C 57.015 16.750,57.331 16.357,57.519 16.053 C 57.707 15.749,58.457 14.887,59.185 14.137 L 60.510 12.775 62.213 12.972 C 63.150 13.080,64.142 13.169,64.417 13.168 C 64.693 13.168,65.138 13.345,65.412 13.564 L 65.907 13.960 65.601 14.939 C 65.433 15.477,65.023 16.245,64.690 16.646 C 64.356 17.047,63.850 17.684,63.564 18.062 C 63.278 18.441,62.390 19.424,61.589 20.247 C 60.789 21.071,59.993 22.021,59.821 22.358 C 59.648 22.696,59.280 23.134,59.001 23.333 C 58.722 23.531,58.195 24.134,57.829 24.673 C 57.463 25.212,56.967 25.862,56.727 26.118 C 56.487 26.374,55.981 26.996,55.604 27.500 C 55.226 28.004,54.787 28.514,54.628 28.632 C 54.469 28.751,54.102 29.201,53.813 29.632 C 53.524 30.064,53.202 30.492,53.097 30.583 C 52.993 30.675,52.544 31.216,52.101 31.785 C 51.657 32.355,51.115 32.938,50.896 33.081 C 50.678 33.225,50.304 33.659,50.065 34.046 C 49.827 34.433,49.283 35.088,48.858 35.502 C 48.432 35.916,47.521 36.959,46.833 37.819 C 46.146 38.680,45.260 39.743,44.865 40.182 C 44.469 40.620,43.917 41.302,43.637 41.698 C 43.357 42.093,43.039 42.492,42.930 42.583 C 42.820 42.675,42.418 43.176,42.035 43.697 C 41.653 44.218,41.128 44.769,40.870 44.921 C 40.612 45.074,40.232 45.446,40.024 45.749 C 39.817 46.051,39.277 46.679,38.824 47.144 C 38.371 47.609,38.000 48.086,38.000 48.204 C 38.000 48.322,37.699 48.738,37.331 49.129 C 36.962 49.520,36.329 50.291,35.923 50.842 C 35.176 51.857,34.379 52.824,32.975 54.419 C 31.747 55.814,31.685 57.967,32.848 58.793 C 33.011 58.909,33.377 59.396,33.661 59.876 C 34.202 60.791,35.529 62.775,36.641 64.333 C 37.000 64.837,37.535 65.658,37.829 66.158 C 38.123 66.657,38.610 67.354,38.912 67.707 C 39.214 68.060,39.692 68.780,39.973 69.308 C 40.254 69.836,40.649 70.414,40.849 70.592 C 41.050 70.771,41.540 71.404,41.939 72.000 C 42.337 72.596,42.945 73.436,43.290 73.867 C 43.635 74.299,44.203 75.086,44.553 75.617 C 44.903 76.149,45.556 77.071,46.004 77.667 C 46.452 78.262,47.154 79.237,47.564 79.833 C 51.075 84.935,54.968 87.833,58.310 87.833 C 59.882 87.833,63.999 85.596,65.764 83.783 C 67.586 81.911,68.997 81.164,69.529 81.792 C 70.650 83.115,70.210 84.488,67.836 87.083 C 66.997 88.000,66.043 89.144,65.715 89.625 C 65.388 90.106,65.057 90.500,64.980 90.500 C 64.904 90.500,64.530 90.894,64.151 91.375 C 62.961 92.882,61.471 94.032,58.750 95.545 C 53.705 98.348,46.218 97.611,42.167 93.912 C 41.754 93.535,41.079 93.031,40.667 92.791 C 39.794 92.284,38.409 90.874,37.843 89.917 C 37.626 89.550,37.167 88.950,36.822 88.583 C 36.478 88.217,36.032 87.620,35.832 87.257 C 35.631 86.895,35.150 86.220,34.762 85.757 C 34.375 85.295,33.883 84.617,33.669 84.250 C 33.455 83.883,33.113 83.396,32.909 83.167 C 32.705 82.938,32.259 82.227,31.918 81.588 C 31.577 80.949,30.963 80.054,30.554 79.599 C 30.145 79.143,29.693 78.541,29.551 78.260 C 29.408 77.980,28.963 77.287,28.562 76.720 C 28.161 76.154,27.833 75.640,27.833 75.579 C 27.833 75.518,27.422 74.850,26.920 74.095 C 26.417 73.340,25.818 72.296,25.587 71.774 C 24.956 70.348,23.372 67.938,22.967 67.789 C 22.022 67.439,21.976 67.993,21.901 80.417 C 21.812 95.212,21.965 94.225,19.686 94.729 C 19.009 94.878,17.771 95.292,16.936 95.648 C 12.265 97.639,10.261 97.784,9.642 96.178 C 9.464 95.719,9.427 16.779,9.604 16.039 C 9.767 15.354,9.949 15.195,11.408 14.456 C 13.998 13.146,14.256 13.035,14.998 12.913 C 16.097 12.733,16.966 12.392,17.526 11.920 C 18.013 11.510,19.264 11.070,20.250 10.961 C 20.887 10.890,21.629 11.523,21.747 12.238 M140.931 14.632 C 141.241 15.233,141.250 15.980,141.261 41.500 C 141.272 66.794,141.308 69.270,141.687 70.458 C 142.040 71.570,142.802 70.931,143.402 69.019 C 143.644 68.250,144.051 67.350,144.307 67.019 C 144.563 66.688,144.944 66.004,145.154 65.500 C 145.607 64.411,145.996 63.749,146.577 63.078 C 146.813 62.806,147.081 62.283,147.173 61.917 C 147.416 60.947,147.874 60.023,148.550 59.138 C 148.877 58.710,149.272 58.110,149.427 57.805 C 149.872 56.930,151.475 55.043,152.103 54.655 C 152.417 54.461,152.873 54.041,153.116 53.722 C 153.359 53.404,153.901 52.968,154.320 52.755 C 154.740 52.541,155.271 52.164,155.500 51.917 C 156.157 51.209,156.654 51.034,158.597 50.823 C 162.230 50.429,163.687 50.718,165.270 52.147 C 165.739 52.570,166.321 53.052,166.563 53.217 C 167.253 53.689,168.332 56.884,168.333 58.461 C 168.333 59.121,167.730 62.183,167.345 63.481 C 167.129 64.207,165.529 66.631,164.417 67.917 C 163.941 68.467,163.356 69.217,163.118 69.583 C 162.023 71.266,159.188 73.769,155.526 76.286 C 153.621 77.595,153.574 77.643,153.342 78.500 C 153.007 79.738,153.716 80.789,157.612 84.833 C 158.274 85.521,158.972 86.271,159.163 86.500 C 159.896 87.378,160.925 88.363,161.452 88.688 C 161.753 88.875,162.000 89.080,162.000 89.145 C 162.000 89.499,163.884 90.368,164.980 90.520 C 166.469 90.726,167.103 90.561,168.592 89.584 C 170.208 88.522,171.383 88.564,171.814 89.699 C 172.177 90.654,171.365 92.478,170.278 93.150 C 169.960 93.346,169.659 93.613,169.609 93.743 C 169.559 93.873,168.832 94.441,167.993 95.005 C 163.390 98.099,158.776 97.884,154.225 94.361 C 152.301 92.872,151.904 92.477,148.389 88.562 C 145.063 84.856,144.606 84.453,143.643 84.374 C 142.219 84.258,141.966 84.641,141.816 87.129 C 141.752 88.204,141.610 89.608,141.501 90.250 C 141.392 90.892,141.311 91.933,141.322 92.563 C 141.348 94.234,139.955 95.720,137.736 96.389 C 137.285 96.524,136.130 96.880,135.168 97.179 C 132.102 98.133,131.112 98.007,130.481 96.580 C 130.030 95.560,129.978 18.562,130.429 17.875 C 131.389 16.410,132.617 15.754,136.500 14.633 C 139.621 13.732,140.466 13.732,140.931 14.632 M320.784 27.993 C 322.083 28.786,322.184 29.735,322.151 40.883 L 322.124 49.850 322.503 50.253 C 323.103 50.892,323.718 50.998,327.206 51.067 C 331.453 51.151,331.888 51.323,331.966 52.944 C 332.102 55.773,329.777 57.692,326.745 57.254 C 324.796 56.973,323.157 57.555,322.547 58.746 L 322.123 59.574 322.150 73.662 C 322.181 90.238,322.149 89.724,323.168 90.250 C 324.408 90.892,326.041 90.603,326.756 89.616 C 327.236 88.952,327.311 88.914,328.208 88.867 C 333.037 88.613,326.857 95.991,321.551 96.814 C 316.629 97.578,313.832 96.389,312.103 92.797 C 310.943 90.385,310.966 90.739,310.936 74.583 C 310.904 56.934,310.951 57.333,308.878 57.333 C 307.104 57.333,305.500 56.567,305.500 55.720 C 305.500 54.207,307.717 51.300,309.042 51.076 C 310.974 50.750,310.908 51.104,310.968 40.688 C 311.012 32.978,311.053 31.740,311.278 31.397 C 311.760 30.661,313.538 29.766,316.583 28.727 C 319.996 27.562,320.059 27.551,320.784 27.993 M208.000 40.155 C 209.054 40.347,210.919 40.683,212.144 40.900 C 214.001 41.230,214.493 41.382,215.105 41.813 C 215.508 42.097,216.432 42.522,217.158 42.757 C 217.884 42.992,218.669 43.335,218.904 43.520 C 219.138 43.704,220.174 44.265,221.207 44.767 C 223.601 45.931,225.516 47.161,226.822 48.375 C 227.389 48.902,227.906 49.333,227.972 49.333 C 228.038 49.333,228.803 50.054,229.671 50.935 C 230.540 51.815,231.429 52.697,231.647 52.893 C 231.866 53.089,232.354 53.586,232.731 53.996 C 233.108 54.407,233.689 55.007,234.021 55.330 C 234.353 55.653,235.248 56.667,236.009 57.583 C 238.284 60.324,239.476 60.468,241.009 58.190 C 241.335 57.706,242.291 56.696,243.133 55.946 C 243.975 55.197,244.866 54.300,245.112 53.953 C 245.359 53.607,245.811 53.168,246.117 52.979 C 246.423 52.790,246.873 52.374,247.116 52.056 C 247.359 51.737,247.901 51.245,248.320 50.962 C 248.740 50.680,249.280 50.253,249.521 50.015 C 249.762 49.777,250.484 49.308,251.124 48.973 C 251.765 48.639,252.618 48.114,253.020 47.808 C 253.423 47.501,254.389 47.030,255.168 46.761 C 255.946 46.492,256.921 46.070,257.333 45.823 C 258.241 45.279,259.325 44.920,261.031 44.596 C 261.736 44.463,262.786 44.131,263.365 43.859 C 266.007 42.618,278.183 42.501,281.498 43.684 C 282.003 43.864,283.368 44.300,284.531 44.652 C 285.693 45.004,287.006 45.495,287.447 45.742 C 287.889 45.989,288.808 46.423,289.489 46.707 C 290.171 46.991,291.184 47.532,291.739 47.910 C 292.295 48.287,293.087 48.793,293.500 49.033 C 294.356 49.533,298.011 53.228,298.700 54.291 C 298.952 54.680,299.457 55.323,299.823 55.719 C 300.188 56.115,300.705 56.922,300.972 57.512 C 301.239 58.101,301.682 58.862,301.955 59.202 C 302.229 59.542,302.548 60.179,302.664 60.618 C 302.779 61.057,303.050 62.017,303.266 62.750 C 304.188 65.894,304.594 71.940,304.038 74.250 C 303.001 78.553,302.502 79.966,301.787 80.634 C 301.561 80.846,301.170 81.502,300.919 82.093 C 300.668 82.683,300.402 83.167,300.327 83.167 C 300.253 83.167,299.984 83.578,299.729 84.080 C 299.386 84.759,299.115 85.061,298.675 85.255 C 297.656 85.704,297.586 85.771,297.486 86.384 C 297.363 87.140,297.093 87.466,296.539 87.532 C 296.207 87.571,296.070 87.710,295.966 88.114 C 295.841 88.599,295.749 88.660,294.873 88.832 C 293.507 89.100,293.537 89.082,293.131 89.917 C 292.872 90.450,292.635 90.705,292.339 90.768 C 290.603 91.135,289.616 91.631,289.292 92.301 C 289.071 92.756,289.020 92.775,286.625 93.258 C 285.199 93.546,285.167 93.563,285.167 94.030 C 285.167 95.235,288.822 94.756,290.435 93.340 C 290.732 93.079,291.225 92.812,291.529 92.748 C 292.344 92.576,293.118 92.051,293.233 91.593 C 293.301 91.320,293.526 91.129,293.938 90.993 C 294.702 90.741,295.755 89.798,296.111 89.049 C 296.634 87.947,297.862 87.532,298.151 88.359 C 298.473 89.284,298.219 90.333,297.671 90.333 C 297.258 90.333,296.711 90.920,296.584 91.498 C 296.509 91.839,296.226 92.191,295.741 92.547 C 295.340 92.842,294.967 93.213,294.912 93.372 C 294.745 93.859,292.059 96.132,291.043 96.647 C 290.515 96.914,289.783 97.372,289.417 97.665 C 288.644 98.281,288.094 98.532,286.867 98.826 C 286.381 98.942,285.602 99.299,285.137 99.619 C 283.956 100.432,283.494 100.596,281.500 100.909 C 280.537 101.061,279.225 101.312,278.583 101.466 C 276.922 101.867,272.323 101.859,270.167 101.450 C 269.296 101.285,267.507 100.973,266.193 100.756 C 264.144 100.418,263.667 100.279,262.859 99.786 C 262.341 99.470,261.429 99.051,260.833 98.855 C 260.237 98.659,259.412 98.270,259.000 97.990 C 258.587 97.710,257.725 97.214,257.083 96.886 C 256.442 96.559,255.654 96.087,255.333 95.838 C 255.012 95.590,254.268 95.106,253.678 94.764 C 253.088 94.422,252.266 93.843,251.852 93.478 C 251.437 93.112,250.737 92.612,250.297 92.365 C 249.857 92.118,249.453 91.777,249.398 91.607 C 249.344 91.436,248.547 90.536,247.627 89.607 C 246.708 88.677,245.537 87.392,245.026 86.750 C 244.515 86.108,243.757 85.221,243.340 84.778 C 242.924 84.335,242.527 83.873,242.458 83.751 C 242.246 83.375,240.358 82.167,239.982 82.167 C 239.612 82.167,238.878 82.852,237.750 84.251 C 237.383 84.706,236.558 85.654,235.917 86.359 C 235.275 87.064,234.412 88.038,234.000 88.523 C 232.403 90.403,230.288 92.342,229.129 92.988 C 228.603 93.281,228.130 93.592,228.076 93.679 C 227.908 93.950,224.263 96.310,223.572 96.596 C 223.211 96.744,222.279 97.229,221.500 97.672 C 220.721 98.116,219.633 98.604,219.083 98.756 C 218.533 98.909,217.633 99.282,217.083 99.584 C 215.906 100.232,214.665 100.599,213.167 100.744 C 212.571 100.801,210.958 101.041,209.583 101.276 C 205.985 101.892,203.430 101.831,199.083 101.022 C 198.625 100.937,197.688 100.814,197.000 100.750 C 195.489 100.608,194.106 100.170,193.136 99.526 C 192.741 99.262,191.854 98.881,191.167 98.677 C 189.284 98.120,183.544 94.912,183.077 94.156 C 183.018 94.061,182.402 93.536,181.709 92.989 C 180.249 91.838,178.020 89.014,176.992 87.012 C 176.636 86.318,176.193 85.487,176.008 85.167 C 175.824 84.846,175.521 84.165,175.335 83.655 C 175.150 83.144,174.706 82.241,174.349 81.649 C 173.298 79.908,173.249 79.596,173.258 74.750 C 173.267 69.585,173.414 68.533,174.379 66.707 C 174.755 65.997,175.194 64.867,175.355 64.195 C 175.516 63.523,175.833 62.730,176.059 62.434 C 176.285 62.138,176.673 61.413,176.921 60.823 C 177.826 58.672,179.133 56.425,179.661 56.113 C 179.940 55.948,180.279 55.599,180.415 55.336 C 180.944 54.314,182.057 53.248,183.218 52.652 C 184.102 52.199,184.447 51.918,184.650 51.486 C 184.859 51.039,185.090 50.859,185.723 50.649 C 186.811 50.288,187.614 49.589,187.332 49.248 C 186.793 48.599,184.740 49.185,183.958 50.211 C 183.502 50.808,183.321 50.881,181.792 51.083 C 181.065 51.178,181.000 51.225,181.000 51.644 C 181.000 52.386,180.342 52.775,179.875 52.309 C 179.600 52.033,180.061 51.205,180.528 51.137 C 180.818 51.094,180.932 50.907,181.084 50.231 C 181.308 49.235,183.052 47.321,184.667 46.301 C 185.171 45.982,185.686 45.597,185.812 45.444 C 185.938 45.292,186.128 45.167,186.234 45.167 C 186.340 45.167,187.111 44.724,187.947 44.183 C 188.784 43.642,189.869 43.083,190.359 42.940 C 190.849 42.797,191.700 42.408,192.250 42.075 C 193.867 41.096,194.043 41.029,195.684 40.764 C 196.545 40.625,197.588 40.395,198.000 40.254 C 199.967 39.582,204.607 39.536,208.000 40.155 M195.500 45.506 C 193.872 45.739,192.769 46.050,191.917 46.517 C 191.458 46.769,190.427 47.103,189.626 47.260 C 187.786 47.620,187.418 47.860,187.977 48.333 C 188.445 48.730,188.754 48.740,190.839 48.425 C 192.708 48.143,193.333 47.934,193.333 47.591 C 193.333 46.915,194.067 46.762,197.904 46.637 C 201.504 46.519,203.184 46.333,202.667 46.110 C 201.089 45.430,197.909 45.162,195.500 45.506 M207.542 47.627 C 206.713 47.767,207.240 48.000,208.375 47.995 C 209.111 47.992,209.486 47.936,209.333 47.851 C 209.008 47.670,208.018 47.546,207.542 47.627 M103.048 51.415 C 103.572 51.551,104.453 51.853,105.006 52.086 C 105.559 52.319,106.625 52.626,107.375 52.768 C 108.841 53.046,109.252 53.207,109.710 53.684 C 109.872 53.853,110.434 54.286,110.960 54.647 C 112.151 55.464,113.589 56.927,113.829 57.565 C 114.247 58.679,112.637 60.459,110.897 60.809 C 110.334 60.922,109.460 61.288,108.797 61.689 C 107.166 62.674,106.429 62.726,105.573 61.914 C 105.212 61.572,104.729 61.170,104.500 61.021 C 104.271 60.873,103.760 60.399,103.365 59.970 C 101.057 57.460,96.613 56.502,94.250 58.004 C 93.975 58.179,93.434 58.482,93.048 58.677 C 92.200 59.105,90.252 61.014,89.833 61.829 C 89.667 62.152,89.393 62.543,89.224 62.697 C 89.055 62.851,88.716 63.161,88.470 63.386 C 88.224 63.611,87.937 64.122,87.833 64.523 C 87.728 64.923,87.243 66.075,86.754 67.083 C 84.442 71.855,84.635 80.368,87.167 85.294 C 90.448 91.676,95.955 92.650,100.259 87.610 C 102.496 84.989,103.578 80.565,103.812 73.083 C 103.947 68.763,104.053 68.340,105.184 67.592 C 105.821 67.170,107.606 66.500,108.093 66.500 C 108.241 66.500,108.937 66.249,109.640 65.943 C 111.832 64.987,112.452 64.903,113.961 65.362 C 115.074 65.701,115.044 65.384,115.092 77.248 C 115.140 88.949,115.176 89.479,115.976 90.194 C 116.836 90.963,119.424 90.661,119.773 89.751 C 120.054 89.019,122.319 88.683,122.661 89.322 C 123.170 90.274,122.650 91.644,121.285 92.942 C 117.646 96.403,115.302 97.322,111.331 96.844 C 109.123 96.578,108.708 96.441,107.290 95.515 L 106.040 94.699 105.011 92.592 C 103.532 89.563,102.677 89.170,101.713 91.073 C 100.761 92.952,96.904 96.095,94.592 96.876 C 92.169 97.694,86.208 97.326,84.183 96.233 C 81.060 94.547,78.353 92.136,77.747 90.500 C 77.594 90.087,77.100 89.000,76.650 88.083 C 75.692 86.134,75.602 85.712,75.319 81.802 C 74.956 76.782,75.538 71.676,76.725 69.477 C 77.039 68.894,77.461 67.910,77.662 67.291 C 77.873 66.643,78.280 65.865,78.621 65.458 C 78.948 65.068,79.420 64.294,79.671 63.736 C 79.922 63.179,80.350 62.466,80.623 62.153 C 80.895 61.840,81.242 61.321,81.392 61.000 C 82.542 58.551,88.980 53.644,92.083 52.851 C 92.817 52.664,94.279 52.209,95.333 51.840 C 97.541 51.069,100.989 50.878,103.048 51.415 M366.667 51.789 C 367.195 52.083,368.289 52.456,369.250 52.670 C 371.091 53.080,372.167 53.456,372.167 53.688 C 372.167 53.772,372.673 54.170,373.292 54.573 C 374.654 55.462,376.271 57.080,376.425 57.710 C 376.674 58.730,374.957 60.380,373.092 60.912 C 372.548 61.068,371.615 61.489,371.020 61.847 C 370.425 62.206,369.754 62.500,369.530 62.500 C 368.752 62.500,366.913 61.105,366.398 60.124 C 365.429 58.277,358.307 56.610,356.654 57.843 C 356.340 58.077,355.738 58.468,355.315 58.711 C 353.896 59.528,351.411 62.492,350.391 64.583 C 350.078 65.225,349.667 66.046,349.478 66.407 C 349.289 66.768,348.954 67.893,348.734 68.907 C 348.515 69.921,348.137 71.473,347.894 72.356 C 347.359 74.308,347.391 77.218,347.970 79.250 C 348.154 79.892,348.468 81.238,348.669 82.241 C 348.870 83.244,349.195 84.379,349.392 84.764 C 350.140 86.223,351.161 87.772,351.747 88.333 C 352.082 88.654,352.503 89.155,352.684 89.447 C 353.617 90.952,358.815 91.059,360.468 89.608 C 360.806 89.311,361.273 88.949,361.505 88.804 C 361.737 88.659,362.118 88.250,362.352 87.895 C 362.586 87.540,363.060 86.826,363.405 86.308 C 363.813 85.696,364.254 84.648,364.667 83.308 C 365.016 82.176,365.490 80.800,365.721 80.250 C 366.312 78.845,366.500 77.158,366.500 73.268 C 366.500 68.180,366.709 67.711,369.352 66.860 C 370.213 66.583,371.892 66.014,373.083 65.595 C 375.567 64.722,375.688 64.707,376.368 65.191 C 377.421 65.941,377.401 65.722,377.409 76.833 C 377.418 88.251,377.478 88.943,378.557 90.012 C 379.416 90.862,381.601 90.553,382.227 89.494 C 382.983 88.215,384.195 88.156,384.909 89.365 C 385.314 90.052,384.850 91.799,384.056 92.571 C 383.766 92.853,383.191 93.413,382.778 93.815 C 382.004 94.570,380.603 95.488,379.000 96.291 C 377.771 96.906,371.964 97.008,371.076 96.429 C 370.197 95.857,369.002 94.764,368.601 94.167 C 367.391 92.363,367.016 91.632,366.740 90.540 C 366.182 88.328,365.458 88.171,364.572 90.068 C 364.268 90.718,363.768 91.522,363.462 91.853 C 363.155 92.185,362.645 92.836,362.327 93.299 C 361.960 93.836,361.417 94.339,360.833 94.684 C 360.329 94.983,359.521 95.524,359.038 95.887 C 356.866 97.517,351.754 97.857,347.328 96.665 C 345.285 96.115,341.356 92.652,340.505 90.651 C 340.216 89.972,339.841 89.267,339.672 89.083 C 339.146 88.512,338.839 87.524,338.409 85.011 C 338.181 83.676,337.924 82.358,337.838 82.083 C 337.449 80.835,337.465 79.281,337.892 76.833 C 338.124 75.504,338.397 73.779,338.498 73.000 C 338.853 70.260,340.117 66.789,341.731 64.119 C 342.130 63.458,342.620 62.595,342.819 62.201 C 343.018 61.807,343.374 61.320,343.609 61.118 C 343.845 60.915,344.267 60.346,344.548 59.852 C 344.830 59.356,345.299 58.812,345.599 58.635 C 345.897 58.460,346.340 58.055,346.583 57.735 C 347.018 57.165,349.943 55.134,351.583 54.263 C 352.042 54.020,352.655 53.670,352.945 53.486 C 353.236 53.302,354.474 52.857,355.695 52.498 C 356.917 52.139,358.292 51.692,358.750 51.505 C 360.211 50.907,365.417 51.095,366.667 51.789 M265.654 54.656 C 263.352 55.182,260.085 56.656,258.873 57.716 C 258.530 58.015,257.832 58.575,257.322 58.960 C 255.813 60.099,250.288 66.171,249.231 67.853 C 248.946 68.307,248.490 68.957,248.218 69.298 C 247.386 70.340,246.755 71.549,246.808 71.996 C 246.936 73.065,247.387 74.154,248.017 74.917 C 248.393 75.371,248.890 76.120,249.122 76.580 C 249.990 78.298,253.638 82.424,254.746 82.940 C 255.747 83.406,255.812 83.410,256.926 83.058 C 257.947 82.737,260.162 83.011,262.533 83.754 C 263.238 83.975,264.326 84.200,264.949 84.254 C 265.573 84.309,267.058 84.513,268.250 84.708 C 271.576 85.254,278.541 85.249,280.333 84.701 C 282.718 83.971,284.280 82.758,285.205 80.917 C 285.481 80.367,285.957 79.574,286.263 79.155 C 286.594 78.701,286.961 77.873,287.171 77.108 C 287.365 76.401,287.700 75.423,287.916 74.935 C 288.806 72.921,288.878 69.367,288.073 67.117 C 287.837 66.457,287.459 65.319,287.233 64.588 C 286.728 62.954,286.473 62.560,284.049 59.667 C 283.308 58.783,281.427 57.251,280.250 56.573 C 279.792 56.309,279.178 55.932,278.886 55.737 C 276.745 54.298,269.728 53.725,265.654 54.656 M204.333 55.942 C 200.575 56.695,198.837 57.284,197.603 58.226 C 197.166 58.560,196.689 58.833,196.544 58.833 C 196.399 58.833,195.822 59.302,195.263 59.875 C 194.703 60.448,194.059 61.075,193.831 61.268 C 192.997 61.976,191.649 63.674,191.432 64.290 C 191.309 64.639,190.867 65.603,190.450 66.433 C 188.565 70.187,188.517 77.180,190.358 80.069 C 190.654 80.535,191.059 81.241,191.257 81.638 C 192.399 83.932,197.875 88.304,200.275 88.837 C 200.719 88.936,201.758 89.332,202.583 89.717 L 204.083 90.417 207.083 90.417 L 210.083 90.417 211.583 89.717 C 212.408 89.332,213.457 88.934,213.914 88.833 C 215.020 88.587,216.032 88.126,216.975 87.440 C 217.401 87.130,218.009 86.745,218.325 86.584 C 218.964 86.258,220.311 85.155,221.596 83.906 C 222.061 83.453,222.704 82.850,223.025 82.566 C 223.662 82.000,225.680 79.429,226.776 77.787 C 227.157 77.217,227.813 76.292,228.234 75.732 C 228.655 75.173,229.000 74.661,229.000 74.596 C 229.000 74.463,229.754 73.428,230.222 72.917 C 230.629 72.473,230.971 71.803,231.346 70.714 L 231.655 69.816 231.239 68.875 C 230.775 67.826,230.077 66.833,229.804 66.833 C 229.706 66.833,229.158 66.500,228.586 66.092 C 228.014 65.684,227.142 65.168,226.648 64.945 C 226.154 64.723,225.454 64.232,225.091 63.854 C 224.729 63.476,224.348 63.167,224.245 63.167 C 224.141 63.167,223.613 62.767,223.070 62.278 C 222.527 61.790,221.633 61.105,221.083 60.756 C 220.533 60.408,219.794 59.863,219.440 59.545 C 219.086 59.228,218.560 58.869,218.270 58.748 C 217.980 58.627,217.600 58.369,217.424 58.175 C 216.149 56.766,207.545 55.298,204.333 55.942 M152.967 60.757 C 152.536 60.981,152.049 61.357,151.884 61.592 C 151.719 61.827,151.283 62.400,150.917 62.865 C 149.951 64.089,149.597 64.655,149.267 65.500 C 149.105 65.912,148.838 66.400,148.672 66.583 C 148.235 67.067,147.750 68.105,147.425 69.250 C 147.270 69.800,146.912 70.540,146.631 70.894 C 145.262 72.620,144.944 76.000,146.150 76.000 C 146.522 76.000,148.629 74.310,149.250 73.513 C 149.525 73.160,150.026 72.635,150.364 72.345 C 150.701 72.056,151.487 71.128,152.110 70.284 C 152.733 69.440,153.620 68.352,154.080 67.865 C 154.540 67.378,155.125 66.555,155.379 66.036 C 155.633 65.516,156.058 64.865,156.324 64.587 C 158.331 62.492,155.606 59.383,152.967 60.757 M259.303 87.325 C 258.805 87.728,259.086 88.084,260.146 88.394 C 260.844 88.597,260.926 88.675,261.014 89.217 C 261.163 90.131,261.552 90.452,262.856 90.735 C 263.171 90.803,263.369 91.013,263.554 91.474 C 263.825 92.153,264.323 92.333,265.926 92.333 C 267.359 92.333,267.300 92.042,265.708 91.251 C 264.158 90.482,263.763 90.192,263.275 89.468 C 262.980 89.030,262.700 88.863,261.910 88.653 C 261.043 88.422,260.906 88.330,260.833 87.930 C 260.710 87.252,259.825 86.902,259.303 87.325 M267.773 93.308 C 267.257 93.879,270.236 94.397,270.895 93.851 C 271.260 93.548,271.229 93.529,270.069 93.330 C 268.030 92.981,268.069 92.981,267.773 93.308 " stroke="none" fill="#fafafa" fill-rule="evenodd"></path></g></svg>